<svg width="29" height="30" viewBox="0 0 29 30" fill="none" xmlns="http://www.w3.org/2000/svg">
<path d="M5.25 13.5L13.5 0L21.75 13.5H5.25ZM21.75 30C19.875 30 18.2812 29.3438 16.9688 28.0312C15.6562 26.7188 15 25.125 15 23.25C15 21.375 15.6562 19.7812 16.9688 18.4688C18.2812 17.1562 19.875 16.5 21.75 16.5C23.625 16.5 25.2188 17.1562 26.5312 18.4688C27.8438 19.7812 28.5 21.375 28.5 23.25C28.5 25.125 27.8438 26.7188 26.5312 28.0312C25.2188 29.3438 23.625 30 21.75 30ZM0 29.25V17.25H12V29.25H0ZM21.75 27C22.8 27 23.6875 26.6375 24.4125 25.9125C25.1375 25.1875 25.5 24.3 25.5 23.25C25.5 22.2 25.1375 21.3125 24.4125 20.5875C23.6875 19.8625 22.8 19.5 21.75 19.5C20.7 19.5 19.8125 19.8625 19.0875 20.5875C18.3625 21.3125 18 22.2 18 23.25C18 24.3 18.3625 25.1875 19.0875 25.9125C19.8125 26.6375 20.7 27 21.75 27ZM3 26.25H9V20.25H3V26.25ZM10.575 10.5H16.425L13.5 5.775L10.575 10.5Z" fill="#4A7C59"/>
</svg>
