<svg width="51" height="51" viewBox="0 0 51 51" fill="none" xmlns="http://www.w3.org/2000/svg">
<path d="M7.2 43.7769C4.95 41.5269 3.1875 38.9269 1.9125 35.9769C0.6375 33.0269 0 29.9769 0 26.8269C0 23.6769 0.6 20.5644 1.8 17.4894C3 14.4144 4.95 11.5269 7.65 8.82692C9.4 7.07692 11.5625 5.57692 14.1375 4.32692C16.7125 3.07692 19.7625 2.08942 23.2875 1.36442C26.8125 0.639423 30.8375 0.201923 35.3625 0.0519231C39.8875 -0.0980769 44.95 0.0769231 50.55 0.576923C50.95 5.87692 51.075 10.7519 50.925 15.2019C50.775 19.6519 50.3625 23.6644 49.6875 27.2394C49.0125 30.8144 48.0625 33.9394 46.8375 36.6144C45.6125 39.2894 44.1 41.5269 42.3 43.3269C39.65 45.9769 36.8375 47.9144 33.8625 49.1394C30.8875 50.3644 27.85 50.9769 24.75 50.9769C21.5 50.9769 18.325 50.3394 15.225 49.0644C12.125 47.7894 9.45 46.0269 7.2 43.7769ZM15.6 42.5769C17.05 43.4269 18.5375 44.0394 20.0625 44.4144C21.5875 44.7894 23.15 44.9769 24.75 44.9769C27.05 44.9769 29.325 44.5144 31.575 43.5894C33.825 42.6644 35.975 41.1769 38.025 39.1269C38.925 38.2269 39.8375 36.9644 40.7625 35.3394C41.6875 33.7144 42.4875 31.5894 43.1625 28.9644C43.8375 26.3394 44.35 23.1644 44.7 19.4394C45.05 15.7144 45.1 11.2769 44.85 6.12692C42.4 6.02692 39.6375 5.98942 36.5625 6.01442C33.4875 6.03942 30.425 6.27692 27.375 6.72692C24.325 7.17692 21.425 7.90192 18.675 8.90192C15.925 9.90192 13.675 11.2769 11.925 13.0269C9.675 15.2769 8.125 17.5019 7.275 19.7019C6.425 21.9019 6 24.0269 6 26.0769C6 29.0269 6.5625 31.6144 7.6875 33.8394C8.8125 36.0644 9.8 37.6269 10.65 38.5269C12.75 34.5269 15.525 30.6894 18.975 27.0144C22.425 23.3394 26.45 20.3269 31.05 17.9769C27.45 21.1269 24.3125 24.6894 21.6375 28.6644C18.9625 32.6394 16.95 37.2769 15.6 42.5769Z" fill="#4A7C59"/>
</svg>
