<?xml version="1.0" encoding="iso-8859-1"?>
<!-- Uploaded to: SVG Repo, www.svgrepo.com, Generator: SVG Repo Mixer Tools -->
<svg height="800px" width="800px" version="1.1" id="Layer_1" xmlns="http://www.w3.org/2000/svg" xmlns:xlink="http://www.w3.org/1999/xlink" 
	 viewBox="0 0 512 512" xml:space="preserve">
<path style="fill:#DEE3ED;" d="M105.931,494.345c0,9.75,7.904,17.655,17.655,17.655h264.828c9.751,0,17.655-7.905,17.655-17.655
	V379.586H105.931V494.345z M308.966,406.069c0-4.875,3.953-8.828,8.828-8.828h52.966c4.875,0,8.828,3.953,8.828,8.828l0,0
	c0,4.875-3.953,8.828-8.828,8.828h-52.966C312.918,414.897,308.966,410.944,308.966,406.069L308.966,406.069z M308.966,441.379
	c0-4.875,3.953-8.828,8.828-8.828h52.966c4.875,0,8.828,3.953,8.828,8.828l0,0c0,4.875-3.953,8.828-8.828,8.828h-52.966
	C312.918,450.207,308.966,446.254,308.966,441.379L308.966,441.379z M317.793,467.862h52.966c4.875,0,8.828,3.953,8.828,8.828
	c0,4.875-3.953,8.828-8.828,8.828h-52.966c-4.875,0-8.828-3.953-8.828-8.828C308.966,471.815,312.918,467.862,317.793,467.862z
	 M264.828,406.069c0-4.875,3.953-8.828,8.828-8.828h8.828c4.875,0,8.828,3.953,8.828,8.828l0,0c0,4.875-3.953,8.828-8.828,8.828
	h-8.828C268.78,414.897,264.828,410.944,264.828,406.069L264.828,406.069z M264.828,441.379c0-4.875,3.953-8.828,8.828-8.828h8.828
	c4.875,0,8.828,3.953,8.828,8.828l0,0c0,4.875-3.953,8.828-8.828,8.828h-8.828C268.78,450.207,264.828,446.254,264.828,441.379
	L264.828,441.379z M273.655,467.862h8.828c4.875,0,8.828,3.953,8.828,8.828c0,4.875-3.953,8.828-8.828,8.828h-8.828
	c-4.875,0-8.828-3.953-8.828-8.828C264.828,471.815,268.78,467.862,273.655,467.862z M176.552,406.069
	c0-4.875,3.953-8.828,8.828-8.828h52.966c4.875,0,8.828,3.953,8.828,8.828l0,0c0,4.875-3.953,8.828-8.828,8.828h-52.966
	C180.504,414.897,176.552,410.944,176.552,406.069L176.552,406.069z M176.552,441.379c0-4.875,3.953-8.828,8.828-8.828h52.966
	c4.875,0,8.828,3.953,8.828,8.828l0,0c0,4.875-3.953,8.828-8.828,8.828h-52.966C180.504,450.207,176.552,446.254,176.552,441.379
	L176.552,441.379z M185.379,467.862h52.966c4.875,0,8.828,3.953,8.828,8.828c0,4.875-3.953,8.828-8.828,8.828h-52.966
	c-4.875,0-8.828-3.953-8.828-8.828C176.552,471.815,180.504,467.862,185.379,467.862z M132.414,406.069
	c0-4.875,3.953-8.828,8.828-8.828h8.828c4.875,0,8.828,3.953,8.828,8.828l0,0c0,4.875-3.953,8.828-8.828,8.828h-8.828
	C136.366,414.897,132.414,410.944,132.414,406.069L132.414,406.069z M132.414,441.379c0-4.875,3.953-8.828,8.828-8.828h8.828
	c4.875,0,8.828,3.953,8.828,8.828l0,0c0,4.875-3.953,8.828-8.828,8.828h-8.828C136.366,450.207,132.414,446.254,132.414,441.379
	L132.414,441.379z M141.241,467.862h8.828c4.875,0,8.828,3.953,8.828,8.828c0,4.875-3.953,8.828-8.828,8.828h-8.828
	c-4.875,0-8.828-3.953-8.828-8.828C132.414,471.815,136.366,467.862,141.241,467.862z"/>
<path style="fill:#BEC8DC;" d="M246.401,211.862h-140.47v167.724h300.138V211.862h-93.803H246.401z M194.207,361.931h-52.966
	c-4.875,0-8.828-3.953-8.828-8.828s3.953-8.828,8.828-8.828h52.966c4.875,0,8.828,3.953,8.828,8.828
	S199.082,361.931,194.207,361.931z M203.034,317.793c0,4.875-3.953,8.828-8.828,8.828h-52.966c-4.875,0-8.828-3.953-8.828-8.828
	v-44.138c0-4.875,3.953-8.828,8.828-8.828h52.966c4.875,0,8.828,3.953,8.828,8.828V317.793z M282.483,361.931h-52.966
	c-4.875,0-8.828-3.953-8.828-8.828s3.953-8.828,8.828-8.828h52.966c4.875,0,8.828,3.953,8.828,8.828
	S287.358,361.931,282.483,361.931z M291.31,317.793c0,4.875-3.953,8.828-8.828,8.828h-52.966c-4.875,0-8.828-3.953-8.828-8.828
	v-44.138c0-4.875,3.953-8.828,8.828-8.828h52.966c4.875,0,8.828,3.953,8.828,8.828V317.793z M370.759,361.931h-52.966
	c-4.875,0-8.828-3.953-8.828-8.828s3.953-8.828,8.828-8.828h52.966c4.875,0,8.828,3.953,8.828,8.828
	S375.634,361.931,370.759,361.931z M379.586,273.655v44.138c0,4.875-3.953,8.828-8.828,8.828h-52.966
	c-4.875,0-8.828-3.953-8.828-8.828v-44.138c0-4.875,3.953-8.828,8.828-8.828h52.966C375.634,264.828,379.586,268.78,379.586,273.655
	z M344.276,238.345c0,4.855-3.972,8.828-8.828,8.828H176.552c-4.855,0-8.828-3.972-8.828-8.828c0-4.855,3.972-8.828,8.828-8.828
	h158.897C340.303,229.517,344.276,233.49,344.276,238.345z"/>
<g>
	<path style="fill:#B9EBFF;" d="M141.241,79.448c0-12.393,2.148-24.273,6.072-35.31h-6.072c-4.855,0-8.828-3.972-8.828-8.828
		s3.972-8.828,8.828-8.828h14.261C161.298,16.518,168.664,7.575,177.267,0h-53.681c-9.751,0-17.655,7.905-17.655,17.655v156.398
		l46.727-46.727C145.358,112.947,141.241,96.679,141.241,79.448z"/>
	<path style="fill:#B9EBFF;" d="M388.414,0h-71.336c19.01,16.74,32.015,40.134,35.237,66.574c0.142,0.134,0.294,0.252,0.433,0.391
		l53.321,53.321V17.655C406.069,7.905,398.165,0,388.414,0z M370.759,44.138h-17.655c-4.855,0-8.828-3.972-8.828-8.828
		s3.972-8.828,8.828-8.828h17.655c4.855,0,8.828,3.972,8.828,8.828S375.614,44.138,370.759,44.138z"/>
</g>
<g>
	<path style="fill:#D2F5F0;" d="M196.473,44.138h-49.161c-3.923,11.038-6.071,22.918-6.071,35.31
		c0,17.23,4.117,33.498,11.416,47.879l25.052-25.053c2.887-2.887,6.527-4.548,10.286-5.017c-1.695-5.64-2.616-11.616-2.616-17.809
		C185.379,66.315,189.489,54.148,196.473,44.138z"/>
	<path style="fill:#D2F5F0;" d="M241.365,140.961l6.209,6.209l6.296-6.296c-2.201,0.237-4.435,0.367-6.698,0.367
		C245.213,141.241,243.277,141.14,241.365,140.961z"/>
	<path style="fill:#D2F5F0;" d="M155.502,26.483h56.36c0.961,0,1.886,0.161,2.753,0.448c9.455-5.874,20.607-9.276,32.557-9.276
		c11.647,0,22.538,3.226,31.836,8.828h3.475c4.855,0,8.828,3.972,8.828,8.828c0,0.291-0.017,0.578-0.044,0.863
		c10.943,11.148,17.699,26.42,17.699,43.275c0,2.264-0.13,4.497-0.367,6.697l19.181-19.181c6.756-6.756,17.614-6.874,24.536-0.391
		C349.092,40.134,336.088,16.74,317.078,0H177.267C168.664,7.575,161.298,16.518,155.502,26.483z M308.966,26.483h17.655
		c4.855,0,8.828,3.972,8.828,8.828s-3.972,8.828-8.828,8.828h-17.655c-4.855,0-8.828-3.972-8.828-8.828
		S304.11,26.483,308.966,26.483z"/>
</g>
<path style="fill:#FCFFDC;" d="M291.266,36.173c-0.437,4.454-4.22,7.965-8.783,7.965h-17.655c-4.855,0-8.828-3.972-8.828-8.828
	s3.972-8.828,8.828-8.828h14.18c-9.299-5.601-20.19-8.828-31.836-8.828c-11.95,0-23.102,3.402-32.557,9.276
	c3.517,1.165,6.074,4.486,6.074,8.38c0,4.855-3.972,8.828-8.828,8.828h-15.389c-6.985,10.01-11.094,22.177-11.094,35.31
	c0,6.193,0.921,12.169,2.617,17.809c5.22-0.652,10.674,1.01,14.681,5.017l38.687,38.687c1.912,0.179,3.848,0.28,5.807,0.28
	c2.263,0,4.497-0.13,6.697-0.367l54.729-54.729c0.237-2.2,0.367-4.433,0.367-6.697C308.966,62.593,302.209,47.321,291.266,36.173z
	 M247.172,114.759c-19.501,0-35.31-15.809-35.31-35.31s15.809-35.31,35.31-35.31s35.31,15.809,35.31,35.31
	S266.674,114.759,247.172,114.759z"/>
<path style="fill:#FFF5A5;" d="M247.172,44.138c-19.501,0-35.31,15.809-35.31,35.31s15.809,35.31,35.31,35.31
	s35.31-15.809,35.31-35.31S266.674,44.138,247.172,44.138z M247.172,97.103c-9.751,0-17.655-7.905-17.655-17.655
	s7.904-17.655,17.655-17.655s17.655,7.905,17.655,17.655S256.924,97.103,247.172,97.103z"/>
<g>
	<circle style="fill:#FFDC69;" cx="247.172" cy="79.448" r="17.655"/>
	<path style="fill:#FFDC69;" d="M211.862,44.138c4.855,0,8.828-3.972,8.828-8.828c0-3.894-2.558-7.214-6.074-8.38
		c-0.867-0.287-1.792-0.448-2.753-0.448h-56.36h-14.261c-4.855,0-8.828,3.972-8.828,8.828s3.972,8.828,8.828,8.828h6.072h49.161
		H211.862z"/>
</g>
<path style="fill:#DEE3ED;" d="M167.724,238.345c0,4.855,3.972,8.828,8.828,8.828h158.897c4.855,0,8.828-3.972,8.828-8.828
	c0-4.855-3.972-8.828-8.828-8.828H176.552C171.697,229.517,167.724,233.49,167.724,238.345z"/>
<g>
	<path style="fill:#9BC8E6;" d="M256,35.31c0,4.855,3.972,8.828,8.828,8.828h17.655c4.564,0,8.346-3.511,8.783-7.965
		c0.028-0.285,0.044-0.572,0.044-0.863c0-4.855-3.972-8.828-8.828-8.828h-3.475h-14.18C259.972,26.483,256,30.455,256,35.31z"/>
	<path style="fill:#9BC8E6;" d="M370.759,26.483h-17.655c-4.855,0-8.828,3.972-8.828,8.828s3.972,8.828,8.828,8.828h17.655
		c4.855,0,8.828-3.972,8.828-8.828S375.614,26.483,370.759,26.483z"/>
	<path style="fill:#9BC8E6;" d="M308.966,44.138h17.655c4.855,0,8.828-3.972,8.828-8.828s-3.972-8.828-8.828-8.828h-17.655
		c-4.855,0-8.828,3.972-8.828,8.828S304.11,44.138,308.966,44.138z"/>
</g>
<path style="fill:#B4EBBE;" d="M352.316,66.574c-6.921-6.484-17.78-6.366-24.536,0.391l-19.181,19.181l-54.729,54.729l-6.296,6.296
	l64.693,64.691h93.803v-91.576l-53.322-53.322C352.608,66.826,352.458,66.707,352.316,66.574z"/>
<path style="fill:#A0D778;" d="M312.266,211.862l-64.692-64.692l-6.209-6.209l-38.687-38.687c-4.008-4.008-9.461-5.67-14.681-5.017
	c-3.759,0.47-7.4,2.131-10.286,5.017l-25.052,25.053l-46.728,46.727v37.809h140.47H312.266z"/>
<path style="fill:#FFDC69;" d="M194.207,264.828h-52.966c-4.875,0-8.828,3.953-8.828,8.828v44.138c0,4.875,3.953,8.828,8.828,8.828
	h52.966c4.875,0,8.828-3.953,8.828-8.828v-44.138C203.034,268.78,199.082,264.828,194.207,264.828z"/>
<path style="fill:#FFF5A5;" d="M308.966,273.655v44.138c0,4.875,3.953,8.828,8.828,8.828h52.966c4.875,0,8.828-3.953,8.828-8.828
	v-44.138c0-4.875-3.953-8.828-8.828-8.828h-52.966C312.918,264.828,308.966,268.78,308.966,273.655z"/>
<path style="fill:#B4EBBE;" d="M282.483,264.828h-52.966c-4.875,0-8.828,3.953-8.828,8.828v44.138c0,4.875,3.953,8.828,8.828,8.828
	h52.966c4.875,0,8.828-3.953,8.828-8.828v-44.138C291.31,268.78,287.358,264.828,282.483,264.828z"/>
<g>
	<path style="fill:#96A5B9;" d="M194.207,344.276h-52.966c-4.875,0-8.828,3.953-8.828,8.828s3.953,8.828,8.828,8.828h52.966
		c4.875,0,8.828-3.953,8.828-8.828S199.082,344.276,194.207,344.276z"/>
	<path style="fill:#96A5B9;" d="M141.241,414.897h8.828c4.875,0,8.828-3.953,8.828-8.828l0,0c0-4.875-3.953-8.828-8.828-8.828
		h-8.828c-4.875,0-8.828,3.953-8.828,8.828l0,0C132.414,410.944,136.366,414.897,141.241,414.897z"/>
	<path style="fill:#96A5B9;" d="M141.241,450.207h8.828c4.875,0,8.828-3.953,8.828-8.828l0,0c0-4.875-3.953-8.828-8.828-8.828
		h-8.828c-4.875,0-8.828,3.953-8.828,8.828l0,0C132.414,446.254,136.366,450.207,141.241,450.207z"/>
</g>
<g>
	<path style="fill:#BEC8DC;" d="M185.379,414.897h52.966c4.875,0,8.828-3.953,8.828-8.828l0,0c0-4.875-3.953-8.828-8.828-8.828
		h-52.966c-4.875,0-8.828,3.953-8.828,8.828l0,0C176.552,410.944,180.504,414.897,185.379,414.897z"/>
	<path style="fill:#BEC8DC;" d="M185.379,450.207h52.966c4.875,0,8.828-3.953,8.828-8.828l0,0c0-4.875-3.953-8.828-8.828-8.828
		h-52.966c-4.875,0-8.828,3.953-8.828,8.828l0,0C176.552,446.254,180.504,450.207,185.379,450.207z"/>
</g>
<g>
	<path style="fill:#96A5B9;" d="M273.655,414.897h8.828c4.875,0,8.828-3.953,8.828-8.828l0,0c0-4.875-3.953-8.828-8.828-8.828
		h-8.828c-4.875,0-8.828,3.953-8.828,8.828l0,0C264.828,410.944,268.78,414.897,273.655,414.897z"/>
	<path style="fill:#96A5B9;" d="M273.655,450.207h8.828c4.875,0,8.828-3.953,8.828-8.828l0,0c0-4.875-3.953-8.828-8.828-8.828
		h-8.828c-4.875,0-8.828,3.953-8.828,8.828l0,0C264.828,446.254,268.78,450.207,273.655,450.207z"/>
</g>
<g>
	<path style="fill:#BEC8DC;" d="M317.793,414.897h52.966c4.875,0,8.828-3.953,8.828-8.828l0,0c0-4.875-3.953-8.828-8.828-8.828
		h-52.966c-4.875,0-8.828,3.953-8.828,8.828l0,0C308.966,410.944,312.918,414.897,317.793,414.897z"/>
	<path style="fill:#BEC8DC;" d="M317.793,450.207h52.966c4.875,0,8.828-3.953,8.828-8.828l0,0c0-4.875-3.953-8.828-8.828-8.828
		h-52.966c-4.875,0-8.828,3.953-8.828,8.828l0,0C308.966,446.254,312.918,450.207,317.793,450.207z"/>
</g>
<path style="fill:#96A5B9;" d="M141.241,485.517h8.828c4.875,0,8.828-3.953,8.828-8.828c0-4.875-3.953-8.828-8.828-8.828h-8.828
	c-4.875,0-8.828,3.953-8.828,8.828C132.414,481.565,136.366,485.517,141.241,485.517z"/>
<path style="fill:#BEC8DC;" d="M185.379,485.517h52.966c4.875,0,8.828-3.953,8.828-8.828c0-4.875-3.953-8.828-8.828-8.828h-52.966
	c-4.875,0-8.828,3.953-8.828,8.828C176.552,481.565,180.504,485.517,185.379,485.517z"/>
<path style="fill:#96A5B9;" d="M273.655,485.517h8.828c4.875,0,8.828-3.953,8.828-8.828c0-4.875-3.953-8.828-8.828-8.828h-8.828
	c-4.875,0-8.828,3.953-8.828,8.828C264.828,481.565,268.78,485.517,273.655,485.517z"/>
<path style="fill:#BEC8DC;" d="M317.793,485.517h52.966c4.875,0,8.828-3.953,8.828-8.828c0-4.875-3.953-8.828-8.828-8.828h-52.966
	c-4.875,0-8.828,3.953-8.828,8.828C308.966,481.565,312.918,485.517,317.793,485.517z"/>
<g>
	<path style="fill:#96A5B9;" d="M282.483,344.276h-52.966c-4.875,0-8.828,3.953-8.828,8.828s3.953,8.828,8.828,8.828h52.966
		c4.875,0,8.828-3.953,8.828-8.828S287.358,344.276,282.483,344.276z"/>
	<path style="fill:#96A5B9;" d="M370.759,344.276h-52.966c-4.875,0-8.828,3.953-8.828,8.828s3.953,8.828,8.828,8.828h52.966
		c4.875,0,8.828-3.953,8.828-8.828S375.634,344.276,370.759,344.276z"/>
</g>
</svg>