<?xml version="1.0" encoding="iso-8859-1"?>
<!-- Uploaded to: SVG Repo, www.svgrepo.com, Generator: SVG Repo Mixer Tools -->
<svg height="800px" width="800px" version="1.1" id="Layer_1" xmlns="http://www.w3.org/2000/svg" xmlns:xlink="http://www.w3.org/1999/xlink" 
	 viewBox="0 0 512 512" xml:space="preserve">
<path style="fill:#D6E5F6;" d="M256,76.437c-115.907,0-210.204,94.296-210.204,210.205c0,10.552,8.556,19.109,19.109,19.109h382.189
	c10.553,0,19.109-8.557,19.109-19.109C466.204,170.734,371.908,76.437,256,76.437z"/>
<path style="fill:#BCD6F2;" d="M256,76.437v229.315h191.095c10.553,0,19.109-8.557,19.109-19.109
	C466.204,170.734,371.908,76.437,256,76.437z"/>
<path style="fill:#8CB7E8;" d="M341.469,229.312c-5.246,0-10.471-2.149-14.245-6.365c-18.12-20.243-44.08-31.854-71.224-31.854
	c-10.554,0-19.109-8.555-19.109-19.109c0-10.554,8.556-19.109,19.109-19.109c38.001,0,74.341,16.251,99.702,44.582
	c7.039,7.864,6.37,19.944-1.494,26.984C350.561,227.705,346.007,229.312,341.469,229.312z"/>
<path style="fill:#F4D853;" d="M240.2,344.66c-17.037,0-30.899,13.858-30.899,30.896c0,8.251,3.214,16.01,9.05,21.845
	c5.837,5.836,13.596,9.049,21.848,9.049l47.953,0.003c5.277,0,9.555,4.277,9.555,9.555c0,5.277-4.278,9.555-9.555,9.555H192.81
	c-2.535,0-4.965-1.006-6.757-2.799l-69.743-69.744c-5.835-5.835-13.593-9.048-21.845-9.048c-8.254,0-16.012,3.214-21.847,9.05
	c-12.047,12.048-12.045,31.648,0,43.696l90.637,90.636l205.798,0.003c2.533,0,4.965,1.006,6.756,2.798L397.655,512l72.297-72.3
	l-95.04-95.04L240.2,344.66L240.2,344.66z"/>
<path style="fill:#E9A440;" d="M374.912,344.66H256v61.791l32.152,0.001c5.277,0,9.555,4.277,9.555,9.555
	c0,5.277-4.278,9.555-9.555,9.555H256v61.79l113.052,0.003c2.533,0,4.965,1.006,6.756,2.798l21.846,21.847l72.298-72.3
	L374.912,344.66z"/>
<g>
	<path style="fill:#8CB7E8;" d="M485.314,267.533H26.686c-10.554,0-19.109,8.555-19.109,19.109c0,10.552,8.556,19.109,19.109,19.109
		h458.627c10.553,0,19.109-8.557,19.109-19.109C504.423,276.087,495.868,267.533,485.314,267.533z"/>
	<path style="fill:#8CB7E8;" d="M256,0c-31.611,0-57.328,25.718-57.328,57.328s25.718,57.328,57.328,57.328
		s57.328-25.718,57.328-57.328S287.612,0,256,0z"/>
</g>
<g>
	<path style="fill:#6398DE;" d="M485.314,267.533H256v38.219h229.314c10.553,0,19.109-8.557,19.109-19.109
		C504.423,276.087,495.868,267.533,485.314,267.533z"/>
	<path style="fill:#6398DE;" d="M313.328,57.328C313.328,25.718,287.612,0,256,0v114.657
		C287.612,114.657,313.328,88.939,313.328,57.328z"/>
</g>
</svg>