<svg width="30" height="32" viewBox="0 0 30 32" fill="none" xmlns="http://www.w3.org/2000/svg">
<path d="M2.4375 19.5375L0 17.775L7.5 5.775L12 11.025L18 1.275L22.5 8.025L27.5625 0L30 1.7625L22.575 13.5375L18.1125 6.825L12.4125 16.0875L7.875 10.8L2.4375 19.5375ZM20.25 25.5C21.3 25.5 22.1875 25.1375 22.9125 24.4125C23.6375 23.6875 24 22.8 24 21.75C24 20.7 23.6375 19.8125 22.9125 19.0875C22.1875 18.3625 21.3 18 20.25 18C19.2 18 18.3125 18.3625 17.5875 19.0875C16.8625 19.8125 16.5 20.7 16.5 21.75C16.5 22.8 16.8625 23.6875 17.5875 24.4125C18.3125 25.1375 19.2 25.5 20.25 25.5ZM27.9 31.5L23.85 27.45C23.325 27.8 22.7562 28.0625 22.1437 28.2375C21.5312 28.4125 20.9 28.5 20.25 28.5C18.375 28.5 16.7812 27.8438 15.4688 26.5312C14.1562 25.2188 13.5 23.625 13.5 21.75C13.5 19.875 14.1562 18.2812 15.4688 16.9688C16.7812 15.6562 18.375 15 20.25 15C22.125 15 23.7188 15.6562 25.0312 16.9688C26.3438 18.2812 27 19.875 27 21.75C27 22.4 26.9125 23.0312 26.7375 23.6437C26.5625 24.2562 26.3 24.825 25.95 25.35L30 29.4L27.9 31.5Z" fill="#4A7C59"/>
</svg>
