<?xml version="1.0" encoding="iso-8859-1"?>
<!-- Uploaded to: SVG Repo, www.svgrepo.com, Generator: SVG Repo Mixer Tools -->
<svg height="800px" width="800px" version="1.1" id="Layer_1" xmlns="http://www.w3.org/2000/svg" xmlns:xlink="http://www.w3.org/1999/xlink" 
	 viewBox="0 0 512 512" xml:space="preserve">
<path style="fill:#FFFFFF;" d="M256,508C116.824,508,4,395.176,4,256S116.824,4,256,4s252,112.824,252,252
	C507.84,395.112,395.112,507.84,256,508z"/>
<path style="fill:#CCCCCC;" d="M256,8c136.968,0,248,111.032,248,248S392.968,504,256,504S8,392.968,8,256
	C8.152,119.096,119.096,8.152,256,8 M256,0C114.616,0,0,114.616,0,256s114.616,256,256,256s256-114.616,256-256S397.384,0,256,0z"/>
<polygon points="207.24,199.696 182.736,127.176 119.288,127.176 119.288,107.8 196.648,107.8 225.6,193.488 "/>
<polygon style="fill:#FFFFFF;" points="168.688,187.936 420.872,187.936 372.8,322.808 210.68,322.808 "/>
<polygon points="366.208,254.728 267.976,254.728 250.016,223.744 178.36,223.744 178.36,215.744 254.624,215.744 272.584,246.728 
	366.208,246.728 "/>
<circle cx="347.84" cy="381.328" r="37.312"/>
<circle cx="235.288" cy="381.328" r="37.312"/>
<g>
	<circle style="fill:#939393;" cx="235.288" cy="381.328" r="13.032"/>
	<circle style="fill:#939393;" cx="347.84" cy="381.328" r="13.032"/>
</g>
<g>
	<polygon style="fill:#E21B1B;" points="414.152,207.36 352.872,207.36 347.184,222.928 409.296,222.928 	"/>
	<polygon style="fill:#E21B1B;" points="200.184,287.816 261.464,287.816 267.16,303.376 205.048,303.376 	"/>
	<path style="fill:#E21B1B;" d="M417.976,191.416l-45.6,127.904h-161.44l-39.832-127.904L417.976,191.416 M429.32,183.416H160.24
		l44.8,143.904h172.992L429.32,183.416z"/>
</g>
</svg>